<svg width="626" height="625" fill="none" xmlns="http://www.w3.org/2000/svg"><g clip-path="url(#a)"><path opacity=".07" d="M568.081 263.448c0 3.388-.075 6.777-.3 9.939 32.354 24.623 57.259 77.408 57.259 123.866 0 50.602-29.57 74.471-66.063 53.388-.075-.076-.151-.076-.226-.151L329.488 318.191c-.076-.076-.151-.076-.302-.151-41.007-23.719-74.264-89.003-74.264-145.854 0-53.237 29.194-80.268 66.59-63.929 4.589-36.52 29.043-52.257 58.538-35.164 14.146 8.208 27.163 22.59 37.321 39.909 14.747-21.913 39.879-27.485 68.319-11.07 45.522 26.205 82.391 98.566 82.391 161.516Z" fill="url(#b)"/><path opacity=".4" d="M530.46 299.591c0 3.388-.075 6.778-.3 9.939 32.354 24.624 57.259 77.408 57.259 123.868 0 50.6-29.57 74.47-66.063 53.386-.075-.075-.151-.075-.226-.151L291.867 354.334c-.075-.075-.151-.075-.302-.151-41.007-23.719-74.264-89.003-74.264-145.854 0-53.235 29.195-80.268 66.59-63.928 4.589-36.52 29.043-52.257 58.538-35.164 14.146 8.208 27.163 22.589 37.321 39.908 14.747-21.912 39.879-27.484 68.32-11.069 45.522 26.204 82.39 98.566 82.39 161.515Z" fill="url(#c)"/><path opacity=".2" d="m167.49 364.047-34.912-20.18v-11.822l34.912 20.181c2.86 1.656 6.998 4.969 10.534 10.09 3.838 5.496 6.546 12.424 6.546 19.953 0 8.284-2.106 13.027-6.169 14.382-3.763 1.281-8.202-.904-10.986-2.484l-14.372-8.283-.075-.076c-1.204-.753-3.16-1.43-4.74-.978-1.279.376-2.709 1.656-2.709 6.249 0 4.594 1.43 7.455 2.634 9.111 1.505 2.108 3.461 3.614 4.665 4.218l.15.074 43.867 25.376v11.822l-43.641-25.225c-3.01-1.581-7.299-4.894-11.06-10.165-4.064-5.723-6.923-13.027-6.848-21.159 0-8.057 2.784-12.199 6.848-13.328 3.761-1.054 8.05.452 11.06 2.334l14.221 8.208c2.031 1.204 3.612 1.732 4.59 1.355.752-.226 2.257-1.355 2.257-7.379 0-3.84-1.279-6.401-2.407-8.132-1.355-1.958-3.236-3.464-4.365-4.142Z" fill="#fff"/><path d="M140.103 340.93c0 9.714-5.719 14.307-12.717 10.316-6.998-4.065-12.716-15.21-12.716-24.999 0-9.713 5.718-14.307 12.716-10.315 6.998 4.065 12.717 15.285 12.717 24.998Z" fill="url(#d)"/><path d="M214.593 445.596c0 9.713-5.719 14.306-12.717 10.316-6.998-4.067-12.716-15.21-12.716-25 0-9.714 5.718-14.306 12.716-10.316 6.998 4.067 12.717 15.286 12.717 25Z" fill="url(#e)"/><path opacity=".07" d="m274.711 195.453 225.652 130.342v119.499L274.635 314.952l.076-119.499Z" fill="url(#f)"/><path opacity=".3" d="M244.538 210.513 470.19 340.855v119.499L244.538 330.012V210.513Z" fill="url(#g)"/><path d="M264.778 281.671c0 9.638 5.718 20.707 12.716 24.773 6.997 4.066 12.716-.452 12.716-10.09s-5.719-20.707-12.716-24.773c-6.998-4.067-12.716.451-12.716 10.09Z" fill="url(#h)"/><path opacity=".15" d="M296.607 300.269c0 4.443 2.633 9.639 5.945 11.521 3.235 1.883 5.868-.225 5.868-4.668 0-4.443-2.633-9.639-5.944-11.521-3.236-1.883-5.869.225-5.869 4.668ZM314.74 310.736c0 4.442 2.634 9.637 5.944 11.52 3.235 1.882 5.87-.226 5.87-4.669 0-4.442-2.635-9.637-5.945-11.52-3.235-1.882-5.869.226-5.869 4.669ZM413.232 331.066v67.995l-8.879-5.12v-67.995l8.879 5.12ZM432.644 342.361v67.994l-8.878-5.12V337.24l8.878 5.121ZM452.132 353.656v67.995l-8.879-5.121v-67.994l8.879 5.12Z" fill="#fff"/><path opacity=".07" d="m274.635 358.775 225.653 130.343v119.499L274.635 478.275v-119.5Z" fill="url(#i)"/><path opacity=".3" d="M244.538 374.589 470.19 504.931V624.43L244.538 494.088V374.589Z" fill="url(#j)"/><path d="M264.778 445.746c0 9.638 5.718 20.707 12.716 24.773 6.997 4.067 12.716-.452 12.716-10.09s-5.719-20.707-12.716-24.772c-6.998-4.067-12.716.451-12.716 10.089Z" fill="url(#k)"/><path opacity=".15" d="M296.607 464.421c0 4.442 2.633 9.637 5.945 11.52 3.235 1.882 5.868-.226 5.868-4.669s-2.633-9.637-5.944-11.52c-3.236-1.882-5.869.15-5.869 4.669ZM314.664 474.886c0 4.443 2.635 9.639 5.945 11.521 3.236 1.883 5.869-.225 5.869-4.668 0-4.443-2.633-9.638-5.944-11.521-3.235-1.958-5.87.15-5.87 4.668ZM413.232 497.476v67.995l-8.879-5.121v-67.994l8.879 5.12ZM432.644 508.772v67.994l-8.878-5.12v-67.995l8.878 5.121ZM452.132 520.066v67.994l-8.879-5.12v-67.994l8.879 5.12Z" fill="#fff"/><path opacity=".3" d="m44.167 33.486 140.629 81.247v260.759L44.167 294.17V33.486Z" fill="url(#l)"/><path d="M130.997 127.91c0 13.027-7.524 19.202-16.779 13.78-9.255-5.422-16.779-20.331-16.779-33.357 0-13.027 7.524-19.201 16.779-13.78 9.255 5.422 16.779 20.331 16.779 33.357Z" fill="url(#m)"/><path d="M114.218 152.156c-14.974-8.733-27.313-.527-29.495 18.298-.376 3.238 2.106 7.606 5.116 9.337l48.833 28.539c3.009 1.732 5.493.376 5.116-3.389-2.258-21.46-14.672-44.05-29.57-52.785Z" fill="url(#n)"/><path opacity=".15" d="m72.384 202.607 83.82 48.417v10.24l-83.82-48.416v-10.241ZM80.886 227.832l66.439 38.327v10.24l-66.439-38.327v-10.24Z" fill="#fff"/><path d="M97.815 270.903 0 214.354v29.141l97.815 56.549v-29.141Z" fill="url(#o)"/><path opacity=".2" d="m215.119.43 20.917 41.113c2.859 5.647 2.408 11.295-1.053 12.65-3.461 1.356-8.577-2.183-11.437-7.83l-.226-.528v45.631c0 5.196-3.611 7.304-8.125 4.744-4.515-2.636-8.127-8.885-8.127-14.081V36.498l-.226.226c-2.858 2.334-8.05-.075-11.436-5.422-3.462-5.346-3.913-11.52-1.054-13.854L215.119.43Z" fill="url(#p)"/><path opacity=".2" d="m215.119 607.487-20.917-41.113c-2.86-5.647-2.408-11.294 1.053-12.649 3.461-1.356 8.578 2.183 11.437 7.831l.225.526v-45.631c0-5.195 3.612-7.304 8.127-4.743 4.515 2.635 8.126 8.885 8.126 14.08v45.631l.226-.226c2.859-2.333 8.051.076 11.437 5.422 3.461 5.347 3.913 11.521 1.054 13.855l-20.768 17.017Z" fill="url(#q)"/></g><defs><linearGradient id="b" x1="611.58" y1="119.654" x2="378.594" y2="340.481" gradientUnits="userSpaceOnUse"><stop stop-color="#fff"/><stop offset="1" stop-color="#fff" stop-opacity="0"/></linearGradient><linearGradient id="c" x1="573.951" y1="155.798" x2="340.966" y2="376.625" gradientUnits="userSpaceOnUse"><stop stop-color="#fff"/><stop offset="1" stop-color="#fff" stop-opacity="0"/></linearGradient><linearGradient id="d" x1="140.103" y1="333.819" x2="114.67" y2="333.819" gradientUnits="userSpaceOnUse"><stop stop-color="#818CF8"/><stop offset="1" stop-color="#818CF8"/></linearGradient><linearGradient id="e" x1="214.593" y1="438.484" x2="189.16" y2="438.484" gradientUnits="userSpaceOnUse"><stop stop-color="#818CF8"/><stop offset="1" stop-color="#818CF8"/></linearGradient><linearGradient id="f" x1="382.886" y1="205.009" x2="391.306" y2="416.386" gradientUnits="userSpaceOnUse"><stop stop-color="#fff"/><stop offset="1" stop-color="#fff" stop-opacity="0"/></linearGradient><linearGradient id="g" x1="352.788" y1="220.069" x2="361.208" y2="431.446" gradientUnits="userSpaceOnUse"><stop stop-color="#fff"/><stop offset="1" stop-color="#fff" stop-opacity="0"/></linearGradient><linearGradient id="h" x1="290.21" y1="289.24" x2="264.778" y2="289.24" gradientUnits="userSpaceOnUse"><stop stop-color="#818CF8"/><stop offset="1" stop-color="#818CF8"/></linearGradient><linearGradient id="i" x1="382.87" y1="368.357" x2="391.29" y2="579.734" gradientUnits="userSpaceOnUse"><stop stop-color="#fff"/><stop offset="1" stop-color="#fff" stop-opacity="0"/></linearGradient><linearGradient id="j" x1="352.772" y1="384.17" x2="361.192" y2="595.546" gradientUnits="userSpaceOnUse"><stop stop-color="#fff"/><stop offset="1" stop-color="#fff" stop-opacity="0"/></linearGradient><linearGradient id="k" x1="290.21" y1="453.316" x2="264.778" y2="453.316" gradientUnits="userSpaceOnUse"><stop stop-color="#818CF8"/><stop offset="1" stop-color="#818CF8"/></linearGradient><linearGradient id="l" x1="199.867" y1="56.404" x2="74.892" y2="272.761" gradientUnits="userSpaceOnUse"><stop stop-color="#fff"/><stop offset="1" stop-color="#fff" stop-opacity="0"/></linearGradient><linearGradient id="m" x1="130.997" y1="118.429" x2="97.439" y2="118.429" gradientUnits="userSpaceOnUse"><stop stop-color="#818CF8"/><stop offset="1" stop-color="#818CF8"/></linearGradient><linearGradient id="n" x1="143.826" y1="179.232" x2="84.685" y2="179.232" gradientUnits="userSpaceOnUse"><stop stop-color="#818CF8"/><stop offset="1" stop-color="#818CF8"/></linearGradient><linearGradient id="o" x1="97.815" y1="257.714" x2="0" y2="257.714" gradientUnits="userSpaceOnUse"><stop stop-color="#818CF8"/><stop offset="1" stop-color="#818CF8"/></linearGradient><linearGradient id="p" x1="230.004" y1="41.901" x2="191.827" y2="63.167" gradientUnits="userSpaceOnUse"><stop stop-color="#fff"/><stop offset="1" stop-color="#fff" stop-opacity="0"/></linearGradient><linearGradient id="q" x1="200.194" y1="566.044" x2="238.371" y2="544.778" gradientUnits="userSpaceOnUse"><stop stop-color="#fff"/><stop offset="1" stop-color="#fff" stop-opacity="0"/></linearGradient><clipPath id="a"><path fill="#fff" transform="translate(0 .43)" d="M0 0h625.04v624H0z"/></clipPath></defs></svg>